<svg xmlns="http://www.w3.org/2000/svg" width="600" height="116" viewBox="0 0 600 116"><style>@media (prefers-color-scheme:dark){.a{fill:#fff}}</style><path class="a" d="M86.658 7.36 60.475 37.333h23.66l26.199 21.118c1.953 1.574 2.225 4.36.624 6.254l-.05.058-38.465 44.036C70.67 110.83 68.054 112 65.297 112H28.915c-2.576 0-4.664-2.006-4.664-4.48a4.38 4.38 0 0 1 1.091-2.88l50.966-58.347h-23.66L30.864 71.235c-1.64 1.876-4.538 2.138-6.51.6l-.06-.048L1.665 53.55c-1.953-1.574-2.225-4.359-.624-6.254l.05-.057L39.557 3.2C41.33 1.17 43.946 0 46.703 0h36.382c2.576 0 4.664 2.006 4.664 4.48a4.38 4.38 0 0 1-1.091 2.88m89.019 85.414V59.677c0-10.451 5.923-14.98 12.542-14.98 7.781 0 13.007 4.529 13.007 14.98v33.097h15.677V55.845c0-15.213-9.987-24.851-22.993-24.851-9.058 0-14.981 3.251-18.233 9.754V8H160v84.774zm70.838 1.394c9.406 0 14.864-3.484 17.768-10.452v9.058h15.213V32.387h-15.678v33.097c0 10.451-5.922 14.98-12.542 14.98-7.78 0-12.077-4.529-12.077-14.98V32.387H223.52v36.93c0 15.212 9.988 24.85 22.994 24.85m75.483.116c16.606 0 29.845-14.052 29.845-31.471 0-17.42-13.239-31.703-29.845-31.703-10.336 0-15.794 4.18-19.046 10.567V8h-15.677v84.774h15.213v-9.87c3.252 6.85 8.71 11.38 19.51 11.38m-2.555-14.168c-10.336 0-16.955-7.897-16.955-17.303s6.62-17.536 16.955-17.536c9.987 0 16.722 8.013 16.722 17.42 0 9.174-6.735 17.42-16.722 17.42m58.828 14.168c13.355 0 23.458-8.361 23.458-19.51 0-9.058-4.065-15.561-21.6-20.09-7.2-1.858-8.13-3.716-8.13-5.807 0-3.716 3.252-5.342 7.55-5.342 4.064 0 7.78 1.859 10.683 6.504l11.38-8.71c-6.154-8.013-12.657-10.452-22.412-10.452-14.168 0-22.53 7.897-22.53 18.465 0 7.664 2.44 14.98 18.581 18.813 9.523 2.206 11.033 3.948 11.033 7.084 0 3.6-3.02 6.27-8.362 6.27-5.11 0-9.755-2.438-14.167-7.432l-10.568 9.64c6.62 7.083 14.864 10.567 25.084 10.567M423.29 116V83.832c3.252 6.271 8.71 10.452 19.045 10.452 16.607 0 29.845-14.052 29.845-31.471 0-17.42-13.238-31.703-29.845-31.703-10.568 0-16.026 4.413-19.277 11.032v-9.755h-15.445V116zm16.49-35.884c-10.335 0-16.955-7.897-16.955-17.303s6.62-17.536 16.955-17.536c9.987 0 16.723 8.013 16.723 17.42 0 9.174-6.736 17.42-16.723 17.42m68.011 14.168c11.962 0 22.065-5.342 26.942-12.89L522.54 72.22c-2.787 4.646-8.013 8.13-14.749 8.13-7.897 0-13.238-4.994-14.98-12.078h45.174a32 32 0 0 0 .464-5.574c0-17.42-12.542-31.82-30.658-31.82s-31.238 14.4-31.238 31.82 12.541 31.587 31.238 31.587m14.865-37.742h-29.845c1.742-7.2 7.316-12.194 14.748-12.194 7.665 0 13.355 5.458 15.097 12.194m51.445 37.742c11.845 0 20.206-4.297 25.897-11.613l-11.38-9.871c-3.136 4.18-7.085 7.2-13.124 7.2-9.987 0-16.838-8.013-16.838-17.42 0-9.406 6.503-17.419 16.49-17.419 5.342 0 9.987 2.671 12.774 6.852L600 42.142c-5.11-7.084-14.052-11.38-25.084-11.265-18.465.117-31.936 14.168-31.936 31.704 0 17.535 13.82 31.703 31.123 31.703"/></svg>